<svg width="72" height="72" viewBox="0 0 72 72" fill="none" xmlns="http://www.w3.org/2000/svg">
<g clip-path="url(#clip0_33_134)">
<path d="M30 0C33.96 0 37.92 0 42 0C42.33 1.98 42.66 3.96 43 6C43.7012 6.0825 44.4025 6.165 45.125 6.25C48.8399 7.21912 51.0147 8.56497 54 11C55.1994 13.7025 55.9919 15.927 56.6875 18.75C56.8875 19.4986 57.0876 20.2472 57.2937 21.0186C57.8971 23.3388 58.4568 25.665 59 28C59.1666 28.709 59.3332 29.418 59.5049 30.1484C62.2058 42.0034 64.1794 54.2058 59.4726 65.8125C57.2889 69.0562 54.944 69.8036 51.2187 70.6328C50.4865 70.754 49.7543 70.8752 49 71C48.3193 71.1818 47.6387 71.3635 46.9375 71.5508C43.9622 72.2406 41.0421 72.0543 38 72C36.68 72 35.36 72 34 72C21.2717 71.2593 21.2717 71.2593 16 69C8.88788 60.2035 9.96339 48.7466 11 38C11.8346 33.0395 12.9468 28.1861 14.1875 23.3125C14.6245 21.5491 14.6245 21.5491 15.0703 19.75C17.3341 11.4818 17.3341 11.4818 20.4231 9.24683C22.3403 8.31918 24.2884 7.45488 26.25 6.625C27.1575 6.08875 28.065 5.5525 29 5C29.33 3.35 29.66 1.7 30 0ZM24 14C21.2392 20.3619 20.3682 26.0923 20 33C22.003 32.1706 22.003 32.1706 24 31C25.6612 25.6011 25.0897 19.6047 25 14C24.67 14 24.34 14 24 14Z" fill="#5CDB96"/>
</g>
<defs>
<clipPath id="clip0_33_134">
<rect width="72" height="72" fill="white"/>
</clipPath>
</defs>
</svg>
